<?xml version="1.0" encoding="utf-8"?>
<!-- Generator: Adobe Illustrator 18.1.0, SVG Export Plug-In . SVG Version: 6.00 Build 0)  -->
<!DOCTYPE svg PUBLIC "-//W3C//DTD SVG 1.1//EN" "http://www.w3.org/Graphics/SVG/1.1/DTD/svg11.dtd">
<svg version="1.1" id="Layer_1" xmlns="http://www.w3.org/2000/svg" xmlns:xlink="http://www.w3.org/1999/xlink" x="0px" y="0px"
	 viewBox="0 0 1000 1000" enable-background="new 0 0 1000 1000" xml:space="preserve">
<g>
	<path fill="#FFFFFF" d="M962,614c-8-18-26-8-26-8c-42,30-142,52-142,52c-116,24-152,2-152,2c-50-24-36-88-36-88
		c144-112,226-212,232-244c0-14,4-22-10-36c-12-14-34-12-34-12c-66,18-154,130-154,130c-46,56-66,142-66,142c-22,30-116,72-116,72
		c-52,36-26-24-26-24c4-36,52-104,52-104c30-30,30-50,30-50c2-34-42-26-42-26c-52,12-80,10-80,10c-44,2-54,34-54,34s-24,56-38,86
		s-56,82-100,104s-10-30-10-30c32-46,48-98,50-102s12-44,20-66c8-20-12-28-12-28c-20-4-24,20-24,20c-20,52-76,116-76,116l-66,76
		l-18,20c0,0-34,36-16,48c0,0,10,14,38-18l110-144c0,0,4,0,2,4c0,4-58,80-50,104c0,0,4,26,32,30c48,8,106-62,106-62
		c38-34,80-138,80-138c4-24,22-24,22-24c6,2,86-10,86-10c-50,64-76,142-76,142c-14,36,12,58,12,58c18,26,58,6,58,6
		c52-18,98-60,98-60c-4,62,54,92,54,92c44,20,140,8,140,8c66-4,184-56,184-56S970,632,962,614z M666,428c24-28,84-92,104-100
		c0,0,24-16,32-12c0,0,12,10-22,44c0,0-88,94-96,102c0,0-60,58-66,60C618,520,644,456,666,428z"/>
	<path fill="#FFFFFF" d="M55.3,715c-5.6,0-8.8-2.7-10-4.1c-3.7-2.6-5.9-6.4-6.4-11c-1.9-16.7,19.8-40.2,22.2-42.8L79,637.3l66-75.9
		c0.6-0.6,55.5-63.8,75.1-114.5c1.5-8.3,8.3-23.4,23.5-23.4c1.6,0,3.4,0.2,5.1,0.5l0.4,0.1l0.3,0.1c0.2,0.1,5.9,2.4,10.5,7.6
		c4.4,4.9,8.6,13.4,3.7,25.6c-4.7,12.8-10.1,32.2-14.1,46.3c-3.4,12.2-5.1,18.2-6.1,20.1c-0.2,0.5-1,2.6-1.8,4.9
		c-5.3,14.5-21.2,58.4-48.4,97.5c-7,10.8-13.5,25.2-11.6,28.7c0.2,0.4,1.3,0.5,1.7,0.5c2.2,0,6.5-0.9,14.7-5
		c43-21.5,84.6-73.1,98.2-102.1c13.4-28.8,36.4-82.4,37.9-85.7c1.1-3.2,12.7-34.5,57.6-36.6l0.2,0l0.2,0c0,0,1.7,0.1,4.9,0.1
		c9.2,0,34.7-1,73.9-10l0.2,0c0.5-0.1,27-4.9,40,8.9c5,5.3,7.2,12.4,6.7,21.2c-0.1,2.1-1.4,22.8-30.9,52.4
		c-3.3,4.7-47.4,68.4-51.1,101.9l-0.1,0.6l-0.2,0.6c-3.9,8.9-8.2,24.2-5.2,28.8c0.2,0.4,0.7,1.1,2.7,1.1c3.2,0,9.7-1.9,22.5-10.8
		l0.3-0.2l0.3-0.2c0.9-0.4,91.9-41.3,113.9-70.1c2.3-9.5,22.4-89,66.6-142.8c3.6-4.5,89.5-113.2,156-131.3l0.3-0.1l0.4,0
		c0.1,0,1.3-0.1,3.3-0.1c6.8,0,23.6,1.3,34,13.4c12.5,12.5,12,21.3,11.3,31.5c-0.1,2.3-0.3,4.7-0.3,7.2v0.4l-0.1,0.4
		c-3.4,18-27.1,52.2-65.2,94c-30.9,33.8-84.9,87.5-167.1,151.5c-0.7,4.2-2.6,17.4-0.4,32.4c3.5,23.7,15.1,40.4,34.5,49.7l0.4,0.2
		c0.1,0.1,15,8.6,55.1,8.6c26.7,0,58.4-3.7,94.1-11.1c0.9-0.2,99.6-22.2,140.5-51.3l0.4-0.2c0.2-0.1,6-3.3,12.8-3.3
		c5.9,0,14,2.3,18.8,13.1c2.4,5.4,2.5,10.7,0.3,15.6c-4.7,10.3-18.4,15.1-20.5,15.8c-7.1,3.1-119.8,52.2-185.1,56.2
		c-2.1,0.3-30.2,3.6-62,3.6c0,0,0,0,0,0c-35.7,0-62.6-4-80-11.9l-0.2-0.1c-0.6-0.3-15.3-8-29.6-23.6c-16.9-18.4-26-40-26.7-63.1
		c-14.8,12.3-51.4,40.6-92.3,54.8c-2.1,1-16.4,7.6-31.8,7.6c-13.3,0-23.9-5.1-30.7-14.7c-3.5-3.3-26.5-26.5-12.7-62
		c1-3.1,25.4-74.1,70.6-135.3c-19.5,2.8-62.3,8.8-74.3,8.8c-1.3,0-2.2-0.1-3-0.2c-2.3,0.2-14.6,2.1-17.7,20.6l-0.1,0.4l-0.2,0.4
		c-1.7,4.3-42.6,104.9-80.8,139.3c-1.8,2.1-14.2,16.7-32.1,31.6c-25.6,21.4-48.8,32.2-69,32.2c-2.9,0-5.8-0.2-8.5-0.7
		c-28.6-4.1-34.5-29.5-35.2-33c-4.5-14.4,9.3-41.4,26.6-69.4L89.1,692.5l-0.1,0.1C76,707.5,64.7,715,55.3,715z M51.2,705.6
		c0.3,0.3,1.5,1.4,4.1,1.4c3.9,0,12.6-2.5,27.6-19.6L194,542h2c1.9,0,4.4,0.8,5.7,3c0.8,1.3,1.4,3.4,0.1,6.3
		c-0.5,1.9-2.5,5.1-9.4,15.5c-13.8,20.9-46,69.8-40.6,86l0.1,0.3l0.1,0.3c0.1,0.9,4,23.1,28.6,26.6c2.4,0.4,4.8,0.6,7.3,0.6
		c43.9,0,94.6-60.6,95.1-61.2l0.4-0.4c35.7-32,75.9-129.1,78.8-136.1c3.7-21.3,18.5-26.9,25.9-26.9h0.6l0.5,0.2
		c0.1,0,0.6,0.1,1.5,0.1c14.7,0,82.1-10.1,82.8-10.2l9.9-1.5l-6.2,7.9c-49,62.7-75.1,140-75.4,140.8l-0.1,0.2
		c-12.7,32.8,9.9,52.7,10.9,53.5l0.4,0.3l0.3,0.4c5.3,7.7,13.6,11.6,24.4,11.6c14.4,0,28.4-6.9,28.5-6.9l0.5-0.2
		c50.6-17.5,96.2-58.8,96.6-59.2l7.3-6.7l-0.6,9.9c-1.6,24.5,6.6,46.7,24.3,66.1c12.8,14.1,26.3,21.4,27.5,22.1
		c16.1,7.3,42.6,11.2,76.6,11.2c32.5,0,60.9-3.5,61.2-3.5l0.3,0c64.5-3.9,181.5-55.2,182.6-55.7l0.4-0.2c3.4-1.1,13-5.2,15.8-11.6
		c1.2-2.8,1.1-5.7-0.3-9c-2.5-5.6-6.3-8.4-11.5-8.4c-4.2,0-8,1.8-8.8,2.2c-42.3,30-139.1,51.6-143.2,52.5
		c-36.3,7.5-68.5,11.3-95.7,11.3c-40.6,0-56.9-8.5-59-9.7c-21.6-10.4-35-29.8-38.8-56c-2.8-19.5,0.7-35.7,0.8-36.4l0.3-1.4l1.1-0.9
		C686,504.7,740,451,770.8,417.3c42.7-46.7,60.6-76.9,63.2-89.7c0-2.6,0.2-5,0.3-7.3c0.6-9.6,0.9-15.4-9.1-25.5l-0.2-0.2
		c-8.3-9.7-22.4-10.7-28.1-10.7c-1,0-1.8,0-2.2,0.1c-33.2,9.2-72.4,43.5-99.6,70.6c-29.7,29.7-51.7,57.6-51.9,57.9
		c-44.9,54.7-65.1,139.6-65.2,140.4l-0.2,0.8l-0.5,0.7c-21.9,29.9-110.1,69.9-117.3,73.1c-11.7,8.1-20.5,12-26.8,12c0,0,0,0,0,0
		c-5.2,0-8-2.6-9.4-4.7c-6.2-9.4,2-30.4,4.3-35.8c4.5-36.7,50.7-102.5,52.6-105.3l0.2-0.3l0.2-0.2c28.1-28.1,28.8-47,28.8-47.2
		l0-0.2c0.4-6.7-1.1-11.7-4.6-15.3c-5.6-6-15.6-7.2-22.9-7.2c-5.2,0-9.2,0.6-9.8,0.7c-38.5,8.9-63.9,10.2-75.6,10.2
		c-2.8,0-4.6-0.1-5.2-0.1c-40.3,1.9-49.8,30-50.2,31.2l-0.1,0.4c-0.2,0.6-24.2,56.4-38.1,86.1c-13.5,28.9-55.2,82.6-101.8,105.9
		c-7.9,3.9-13.9,5.8-18.3,5.8c-5.5,0-7.8-2.9-8.8-4.7c-5.1-9.5,7.8-30.7,11.9-37l0.1-0.1c26.6-38.3,42.3-81.5,47.5-95.7
		c1.3-3.5,1.8-4.9,2.2-5.8c0.7-1.4,3.1-10.2,5.5-18.7c4-14.3,9.5-33.8,14.3-46.9l0-0.1c6-14.9-6.8-21.5-9.5-22.7
		c-1.1-0.2-2.2-0.3-3.2-0.3c-12.7,0-15.7,16.9-15.7,17.1l-0.1,0.4l-0.1,0.4c-20,52.1-74.4,114.6-76.7,117.2l-66,76l-18,20.1
		c-6.1,6.4-21.4,25.4-20.2,36.5c0.3,2.4,1.4,4.2,3.4,5.5l0.7,0.5L51.2,705.6z M614,527.5V522c0-4,27.4-69.1,48.9-96.5l0.1-0.1
		c20.4-23.8,82.9-91.5,105.2-100.9c3.2-2.1,20.4-13.1,30.7-13.1c1.9,0,3.6,0.4,5,1.1l0.4,0.2l0.4,0.3c0.5,0.4,3.2,3,3.5,8.4
		c0.5,10.3-8,24.3-25.2,41.5c-4.2,4.4-88.1,94.1-96,102c-18.3,17.7-61.4,58.9-67.6,61L614,527.5z M669.1,430.5
		c-15.8,20.1-33.6,59-42.1,79.3c12.7-11.2,34.5-31.7,54.2-50.8c7.8-7.8,95-100.9,95.9-101.9l0.1-0.1c25.2-25.2,23.3-35.5,22.3-37.8
		c-0.2,0-0.4,0-0.7,0c-6.3,0-19.6,7.3-26.6,12l-0.3,0.2l-0.4,0.2C753.6,338.9,696.2,398.9,669.1,430.5z"/>
</g>
</svg>
